<svg width="99" height="21" viewBox="0 0 99 21" fill="none" xmlns="http://www.w3.org/2000/svg">
<path d="M33.6588 14.1299H29.0554L27.9498 17.436H26L30.3603 5.2041H32.3861L36.7465 17.436H34.7634L33.6588 14.1299ZM29.5321 12.6043H33.1811L31.3823 7.23861H31.332L29.5321 12.6043Z" fill="white"/>
<path d="M46.1633 12.9772C46.1633 15.7485 44.6987 17.5291 42.4887 17.5291C41.9288 17.5587 41.372 17.4281 40.8821 17.1522C40.3921 16.8762 39.9888 16.4661 39.7182 15.9688H39.6764V20.386H37.869V8.51768H39.6185V10.001H39.6517C39.9347 9.50604 40.3449 9.09806 40.8386 8.82044C41.3322 8.54281 41.891 8.40594 42.4554 8.42437C44.6901 8.42438 46.1633 10.2136 46.1633 12.9772ZM44.3055 12.9772C44.3055 11.1717 43.3843 9.98463 41.9786 9.98463C40.5977 9.98463 39.6688 11.1967 39.6688 12.9772C39.6688 14.7741 40.5977 15.9775 41.9786 15.9775C43.3843 15.9775 44.3055 14.7991 44.3055 12.9772Z" fill="white"/>
<path d="M55.8545 12.9772C55.8545 15.7485 54.39 17.529 52.1799 17.529C51.6201 17.5587 51.0633 17.4281 50.5733 17.1521C50.0834 16.8762 49.68 16.4661 49.4095 15.9688H49.3677V20.386H47.5603V8.51768H49.3097V10.001H49.343C49.626 9.50604 50.0361 9.09805 50.5298 8.82043C51.0235 8.54281 51.5823 8.40594 52.1467 8.42437C54.3815 8.42437 55.8545 10.2136 55.8545 12.9772ZM53.9968 12.9772C53.9968 11.1717 53.0755 9.98462 51.6699 9.98462C50.289 9.98462 49.3601 11.1967 49.3601 12.9772C49.3601 14.7741 50.289 15.9775 51.6699 15.9775C53.0756 15.9775 53.9968 14.7991 53.9968 12.9772H53.9968Z" fill="white"/>
<path d="M62.2598 14.0278C62.3937 15.2408 63.5572 16.0372 65.1471 16.0372C66.6705 16.0372 67.7665 15.2407 67.7665 14.147C67.7665 13.1976 67.1055 12.6291 65.5403 12.2395L63.9751 11.8576C61.7574 11.3151 60.7279 10.2646 60.7279 8.56011C60.7279 6.44963 62.5438 5 65.1224 5C67.6743 5 69.4238 6.44963 69.4827 8.56011H67.6582C67.549 7.33941 66.5527 6.60258 65.0967 6.60258C63.6407 6.60258 62.6444 7.34808 62.6444 8.43314C62.6444 9.29791 63.2808 9.80677 64.8374 10.1963L66.168 10.5272C68.6459 11.1207 69.6755 12.1289 69.6755 13.918C69.6755 16.2065 67.8757 17.6397 65.0131 17.6397C62.3348 17.6397 60.5265 16.2401 60.4097 14.0277L62.2598 14.0278Z" fill="white"/>
<path d="M73.576 6.40723V8.5177H75.2505V9.96733H73.576V14.8838C73.576 15.6475 73.9113 16.0034 74.6474 16.0034C74.8462 15.9999 75.0446 15.9858 75.2419 15.9611V17.4021C74.911 17.4647 74.5746 17.493 74.238 17.4867C72.4553 17.4867 71.7601 16.8085 71.7601 15.079V9.96733H70.4799V8.5177H71.7601V6.40723H73.576Z" fill="white"/>
<path d="M76.2201 12.9771C76.2201 10.1712 77.8518 8.40796 80.3962 8.40796C82.9491 8.40796 84.5732 10.1711 84.5732 12.9771C84.5732 15.7908 82.9576 17.5463 80.3962 17.5463C77.8356 17.5463 76.2201 15.7908 76.2201 12.9771ZM82.7316 12.9771C82.7316 11.0523 81.8607 9.91627 80.3962 9.91627C78.9316 9.91627 78.0617 11.061 78.0617 12.9771C78.0617 14.9096 78.9316 16.037 80.3962 16.037C81.8607 16.037 82.7316 14.9096 82.7316 12.9771H82.7316Z" fill="white"/>
<path d="M86.0634 8.51785H87.7872V10.0358H87.829C87.9456 9.56168 88.2198 9.14272 88.6055 8.8493C88.9912 8.55588 89.4649 8.40588 89.9469 8.42452C90.1552 8.42379 90.3629 8.4467 90.5662 8.49283V10.2051C90.3032 10.1237 90.0289 10.0863 89.7541 10.0944C89.4915 10.0837 89.2298 10.1305 88.9868 10.2319C88.7438 10.3332 88.5253 10.4866 88.3464 10.6816C88.1675 10.8765 88.0323 11.1083 87.9502 11.3611C87.8681 11.614 87.841 11.8818 87.8707 12.1462V17.4359H86.0634L86.0634 8.51785Z" fill="white"/>
<path d="M98.8993 14.8163C98.6562 16.4353 97.0996 17.5463 95.1079 17.5463C92.5464 17.5463 90.9565 15.8081 90.9565 13.0195C90.9565 10.2222 92.555 8.40796 95.0319 8.40796C97.4681 8.40796 99 10.1029 99 12.8069V13.434H92.781V13.5447C92.7523 13.8729 92.7929 14.2035 92.9 14.5146C93.0072 14.8257 93.1785 15.1102 93.4025 15.3491C93.6265 15.588 93.8982 15.7759 94.1994 15.9003C94.5007 16.0247 94.8246 16.0828 95.1497 16.0707C95.5768 16.1112 96.0054 16.011 96.3718 15.785C96.7382 15.559 97.0227 15.2193 97.1831 14.8163L98.8993 14.8163ZM92.7896 12.1547H97.1917C97.2079 11.8596 97.1637 11.5643 97.0619 11.2873C96.9601 11.0103 96.8029 10.7576 96.6001 10.545C96.3973 10.3325 96.1533 10.1647 95.8835 10.0522C95.6136 9.9397 95.3237 9.88491 95.0319 9.89126C94.7376 9.88948 94.4459 9.94675 94.1735 10.0598C93.9011 10.1728 93.6536 10.3393 93.4451 10.5498C93.2366 10.7602 93.0714 11.0104 92.9589 11.2858C92.8463 11.5613 92.7888 11.8566 92.7896 12.1547V12.1547Z" fill="white"/>
<path d="M13.3636 10.5925C13.3733 9.82908 13.5735 9.08052 13.9456 8.4165C14.3177 7.75248 14.8496 7.19457 15.4918 6.7947C15.0839 6.20458 14.5457 5.71893 13.92 5.37633C13.2943 5.03373 12.5983 4.84362 11.8874 4.82109C10.3708 4.65987 8.90062 5.7402 8.12782 5.7402C7.34007 5.7402 6.15022 4.8371 4.86895 4.8638C4.04019 4.89092 3.2325 5.135 2.52457 5.57228C1.81664 6.00955 1.23262 6.6251 0.82941 7.35895C-0.917205 10.4217 0.385612 14.9229 2.05872 17.3986C2.89582 18.6109 3.87414 19.9651 5.15425 19.9171C6.40692 19.8644 6.87477 19.108 8.38684 19.108C9.88489 19.108 10.3238 19.9171 11.6299 19.8865C12.9741 19.8644 13.821 18.6689 14.6287 17.4451C15.2301 16.5813 15.693 15.6266 16 14.6164C15.2191 14.2819 14.5527 13.7219 14.0838 13.0064C13.615 12.2908 13.3645 11.4513 13.3636 10.5925V10.5925Z" fill="white"/>
<path d="M10.8966 3.19283C11.6295 2.30173 11.9906 1.15638 11.9031 0C10.7834 0.119111 9.74913 0.661118 9.00633 1.51803C8.64316 1.93665 8.365 2.42366 8.18777 2.95123C8.01054 3.47879 7.93771 4.03656 7.97344 4.59265C8.53349 4.59849 9.08755 4.47555 9.59389 4.23307C10.1002 3.9906 10.5457 3.63492 10.8966 3.19283Z" fill="white"/>
</svg>
