<svg width="105" height="22" viewBox="0 0 105 22" fill="none" xmlns="http://www.w3.org/2000/svg">
<path d="M1.33358 17V7.2H5.61758C6.68158 7.2 7.61491 7.40533 8.41758 7.816C9.22025 8.22667 9.84558 8.796 10.2936 9.524C10.7416 10.252 10.9656 11.1107 10.9656 12.1C10.9656 13.08 10.7416 13.9387 10.2936 14.676C9.84558 15.404 9.22025 15.9733 8.41758 16.384C7.61491 16.7947 6.68158 17 5.61758 17H1.33358ZM3.15358 15.46H5.53358C6.27091 15.46 6.90558 15.32 7.43758 15.04C7.97891 14.76 8.39424 14.368 8.68358 13.864C8.98225 13.36 9.13158 12.772 9.13158 12.1C9.13158 11.4187 8.98225 10.8307 8.68358 10.336C8.39424 9.832 7.97891 9.44 7.43758 9.16C6.90558 8.88 6.27091 8.74 5.53358 8.74H3.15358V15.46ZM16.246 17.098C15.4153 17.098 14.6873 16.9347 14.062 16.608C13.446 16.272 12.9653 15.8147 12.62 15.236C12.284 14.6573 12.116 13.9993 12.116 13.262C12.116 12.5153 12.2793 11.8573 12.606 11.288C12.942 10.7093 13.3993 10.2567 13.978 9.93C14.566 9.60333 15.2333 9.44 15.98 9.44C16.708 9.44 17.3567 9.59867 17.926 9.916C18.4953 10.2333 18.9433 10.6813 19.27 11.26C19.5967 11.8387 19.76 12.52 19.76 13.304C19.76 13.3787 19.7553 13.4627 19.746 13.556C19.746 13.6493 19.7413 13.738 19.732 13.822H13.502V12.66H18.808L18.122 13.024C18.1313 12.5947 18.0427 12.2167 17.856 11.89C17.6693 11.5633 17.4127 11.3067 17.086 11.12C16.7687 10.9333 16.4 10.84 15.98 10.84C15.5507 10.84 15.1727 10.9333 14.846 11.12C14.5287 11.3067 14.2767 11.568 14.09 11.904C13.9127 12.2307 13.824 12.618 13.824 13.066V13.346C13.824 13.794 13.9267 14.1907 14.132 14.536C14.3373 14.8813 14.6267 15.1473 15 15.334C15.3733 15.5207 15.8027 15.614 16.288 15.614C16.708 15.614 17.086 15.5487 17.422 15.418C17.758 15.2873 18.0567 15.082 18.318 14.802L19.256 15.88C18.92 16.272 18.4953 16.5753 17.982 16.79C17.478 16.9953 16.8993 17.098 16.246 17.098ZM23.751 17.098C23.1256 17.098 22.5236 17.0187 21.945 16.86C21.3756 16.692 20.923 16.4913 20.587 16.258L21.259 14.928C21.595 15.1427 21.9963 15.32 22.463 15.46C22.9296 15.6 23.3963 15.67 23.863 15.67C24.4136 15.67 24.8103 15.5953 25.053 15.446C25.305 15.2967 25.431 15.096 25.431 14.844C25.431 14.6387 25.347 14.4847 25.179 14.382C25.011 14.27 24.7916 14.186 24.521 14.13C24.2503 14.074 23.947 14.0227 23.611 13.976C23.2843 13.9293 22.953 13.8687 22.617 13.794C22.2903 13.71 21.9916 13.5933 21.721 13.444C21.4503 13.2853 21.231 13.0753 21.063 12.814C20.895 12.5527 20.811 12.2073 20.811 11.778C20.811 11.302 20.9463 10.8913 21.217 10.546C21.4876 10.1913 21.8656 9.92067 22.351 9.734C22.8456 9.538 23.429 9.44 24.101 9.44C24.605 9.44 25.1136 9.496 25.627 9.608C26.1403 9.72 26.565 9.87867 26.901 10.084L26.229 11.414C25.8743 11.1993 25.515 11.0547 25.151 10.98C24.7963 10.896 24.4416 10.854 24.087 10.854C23.555 10.854 23.1583 10.9333 22.897 11.092C22.645 11.2507 22.519 11.4513 22.519 11.694C22.519 11.918 22.603 12.086 22.771 12.198C22.939 12.31 23.1583 12.3987 23.429 12.464C23.6996 12.5293 23.9983 12.5853 24.325 12.632C24.661 12.6693 24.9923 12.73 25.319 12.814C25.6456 12.898 25.9443 13.0147 26.215 13.164C26.495 13.304 26.719 13.5047 26.887 13.766C27.055 14.0273 27.139 14.368 27.139 14.788C27.139 15.2547 26.999 15.6607 26.719 16.006C26.4483 16.3513 26.061 16.622 25.557 16.818C25.053 17.0047 24.451 17.098 23.751 17.098ZM32.076 17.098C31.292 17.098 30.592 16.9347 29.976 16.608C29.3694 16.272 28.8934 15.8147 28.548 15.236C28.2027 14.6573 28.03 13.9993 28.03 13.262C28.03 12.5153 28.2027 11.8573 28.548 11.288C28.8934 10.7093 29.3694 10.2567 29.976 9.93C30.592 9.60333 31.292 9.44 32.076 9.44C32.804 9.44 33.4434 9.58933 33.994 9.888C34.554 10.1773 34.9787 10.6067 35.268 11.176L33.924 11.96C33.7 11.6053 33.4247 11.344 33.098 11.176C32.7807 11.008 32.4354 10.924 32.062 10.924C31.6327 10.924 31.2454 11.0173 30.9 11.204C30.5547 11.3907 30.284 11.6613 30.088 12.016C29.892 12.3613 29.794 12.7767 29.794 13.262C29.794 13.7473 29.892 14.1673 30.088 14.522C30.284 14.8673 30.5547 15.1333 30.9 15.32C31.2454 15.5067 31.6327 15.6 32.062 15.6C32.4354 15.6 32.7807 15.516 33.098 15.348C33.4247 15.18 33.7 14.9187 33.924 14.564L35.268 15.348C34.9787 15.908 34.554 16.342 33.994 16.65C33.4434 16.9487 32.804 17.098 32.076 17.098ZM41.3868 17V15.488L41.2888 15.166V12.52C41.2888 12.0067 41.1348 11.61 40.8268 11.33C40.5188 11.0407 40.0521 10.896 39.4268 10.896C39.0068 10.896 38.5915 10.9613 38.1808 11.092C37.7795 11.2227 37.4388 11.4047 37.1588 11.638L36.4728 10.364C36.8741 10.056 37.3501 9.82733 37.9008 9.678C38.4608 9.51933 39.0395 9.44 39.6368 9.44C40.7195 9.44 41.5548 9.70133 42.1428 10.224C42.7401 10.7373 43.0388 11.5353 43.0388 12.618V17H41.3868ZM39.0348 17.098C38.4748 17.098 37.9848 17.0047 37.5648 16.818C37.1448 16.622 36.8181 16.356 36.5848 16.02C36.3608 15.6747 36.2488 15.2873 36.2488 14.858C36.2488 14.438 36.3468 14.06 36.5428 13.724C36.7481 13.388 37.0795 13.122 37.5368 12.926C37.9941 12.73 38.6008 12.632 39.3568 12.632H41.5268V13.794H39.4828C38.8855 13.794 38.4841 13.892 38.2788 14.088C38.0735 14.2747 37.9708 14.508 37.9708 14.788C37.9708 15.1053 38.0968 15.3573 38.3488 15.544C38.6008 15.7307 38.9508 15.824 39.3988 15.824C39.8281 15.824 40.2108 15.726 40.5468 15.53C40.8921 15.334 41.1395 15.0447 41.2888 14.662L41.5828 15.712C41.4148 16.1507 41.1115 16.4913 40.6728 16.734C40.2435 16.9767 39.6975 17.098 39.0348 17.098ZM45.2847 17V9.524H46.9507V11.582L46.7547 10.98C46.9787 10.476 47.3287 10.0933 47.8047 9.832C48.2901 9.57067 48.8921 9.44 49.6107 9.44V11.106C49.5361 11.0873 49.4661 11.078 49.4007 11.078C49.3354 11.0687 49.2701 11.064 49.2047 11.064C48.5421 11.064 48.0147 11.26 47.6227 11.652C47.2307 12.0347 47.0347 12.6087 47.0347 13.374V17H45.2847ZM54.4149 19.814C53.7242 19.814 53.0476 19.7207 52.3849 19.534C51.7316 19.3567 51.1949 19.0953 50.7749 18.75L51.5589 17.434C51.8856 17.7047 52.2962 17.9193 52.7909 18.078C53.2949 18.246 53.8036 18.33 54.3169 18.33C55.1382 18.33 55.7402 18.1387 56.1229 17.756C56.5056 17.3827 56.6969 16.818 56.6969 16.062V14.732L56.8369 13.038L56.7809 11.344V9.524H58.4469V15.866C58.4469 17.2193 58.1016 18.2133 57.4109 18.848C56.7202 19.492 55.7216 19.814 54.4149 19.814ZM54.1909 16.664C53.4816 16.664 52.8376 16.5147 52.2589 16.216C51.6896 15.908 51.2369 15.4833 50.9009 14.942C50.5742 14.4007 50.4109 13.766 50.4109 13.038C50.4109 12.3193 50.5742 11.6893 50.9009 11.148C51.2369 10.6067 51.6896 10.1867 52.2589 9.888C52.8376 9.58933 53.4816 9.44 54.1909 9.44C54.8256 9.44 55.3949 9.566 55.8989 9.818C56.4029 10.07 56.8042 10.462 57.1029 10.994C57.4109 11.526 57.5649 12.2073 57.5649 13.038C57.5649 13.8687 57.4109 14.5547 57.1029 15.096C56.8042 15.628 56.4029 16.0247 55.8989 16.286C55.3949 16.538 54.8256 16.664 54.1909 16.664ZM54.4569 15.18C54.8956 15.18 55.2876 15.0913 55.6329 14.914C55.9782 14.7273 56.2442 14.4753 56.4309 14.158C56.6269 13.8313 56.7249 13.458 56.7249 13.038C56.7249 12.618 56.6269 12.2493 56.4309 11.932C56.2442 11.6053 55.9782 11.358 55.6329 11.19C55.2876 11.0127 54.8956 10.924 54.4569 10.924C54.0182 10.924 53.6216 11.0127 53.2669 11.19C52.9216 11.358 52.6509 11.6053 52.4549 11.932C52.2682 12.2493 52.1749 12.618 52.1749 13.038C52.1749 13.458 52.2682 13.8313 52.4549 14.158C52.6509 14.4753 52.9216 14.7273 53.2669 14.914C53.6216 15.0913 54.0182 15.18 54.4569 15.18ZM65.3536 17V15.488L65.2556 15.166V12.52C65.2556 12.0067 65.1016 11.61 64.7936 11.33C64.4856 11.0407 64.0189 10.896 63.3936 10.896C62.9736 10.896 62.5583 10.9613 62.1476 11.092C61.7463 11.2227 61.4056 11.4047 61.1256 11.638L60.4396 10.364C60.8409 10.056 61.3169 9.82733 61.8676 9.678C62.4276 9.51933 63.0063 9.44 63.6036 9.44C64.6863 9.44 65.5216 9.70133 66.1096 10.224C66.7069 10.7373 67.0056 11.5353 67.0056 12.618V17H65.3536ZM63.0016 17.098C62.4416 17.098 61.9516 17.0047 61.5316 16.818C61.1116 16.622 60.7849 16.356 60.5516 16.02C60.3276 15.6747 60.2156 15.2873 60.2156 14.858C60.2156 14.438 60.3136 14.06 60.5096 13.724C60.7149 13.388 61.0463 13.122 61.5036 12.926C61.9609 12.73 62.5676 12.632 63.3236 12.632H65.4936V13.794H63.4496C62.8523 13.794 62.4509 13.892 62.2456 14.088C62.0403 14.2747 61.9376 14.508 61.9376 14.788C61.9376 15.1053 62.0636 15.3573 62.3156 15.544C62.5676 15.7307 62.9176 15.824 63.3656 15.824C63.7949 15.824 64.1776 15.726 64.5136 15.53C64.8589 15.334 65.1063 15.0447 65.2556 14.662L65.5496 15.712C65.3816 16.1507 65.0783 16.4913 64.6396 16.734C64.2103 16.9767 63.6643 17.098 63.0016 17.098ZM69.2515 17V9.524H70.9175V11.582L70.7215 10.98C70.9455 10.476 71.2955 10.0933 71.7715 9.832C72.2568 9.57067 72.8588 9.44 73.5775 9.44V11.106C73.5028 11.0873 73.4328 11.078 73.3675 11.078C73.3022 11.0687 73.2368 11.064 73.1715 11.064C72.5088 11.064 71.9815 11.26 71.5895 11.652C71.1975 12.0347 71.0015 12.6087 71.0015 13.374V17H69.2515Z" fill="white"/>
<path d="M100.417 13.75C99.9104 13.75 99.5 14.1604 99.5 14.6667V16.5H88.5V14.6667C88.5 14.1604 88.0896 13.75 87.5833 13.75V13.75C87.077 13.75 86.6666 14.1604 86.6666 14.6667V16.5C86.6666 17.5083 87.4916 18.3333 88.5 18.3333H99.5C100.508 18.3333 101.333 17.5083 101.333 16.5V14.6667C101.333 14.1604 100.923 13.75 100.417 13.75V13.75Z" fill="white"/>
<path d="M97.9364 10.7302C98.2937 10.3729 98.2937 9.79368 97.9364 9.43642V9.43642C97.5796 9.07965 97.0014 9.07909 96.6439 9.43517L94.9166 11.1558V4.58329C94.9166 4.07703 94.5062 3.66663 94 3.66663V3.66663C93.4937 3.66663 93.0833 4.07703 93.0833 4.58329V11.1558L91.356 9.43517C90.9985 9.07909 90.4203 9.07965 90.0635 9.43642V9.43642C89.7062 9.79368 89.7062 10.3729 90.0635 10.7302L94 14.6666L97.9364 10.7302Z" fill="white"/>
</svg>
