<svg width="111" height="21" viewBox="0 0 111 21" fill="none" xmlns="http://www.w3.org/2000/svg">
<path d="M52.7523 6.21364C50.3949 6.21364 48.469 7.99593 48.469 10.455C48.469 12.8941 50.3949 14.6951 52.7523 14.6951C55.1148 14.6951 57.0406 12.8941 57.0406 10.455C57.0406 7.99593 55.1148 6.21364 52.7523 6.21364ZM52.7523 13.025C51.4588 13.025 50.3459 11.9643 50.3459 10.455C50.3459 8.92571 51.4588 7.88375 52.7523 7.88375C54.0458 7.88375 55.1637 8.92571 55.1637 10.455C55.1637 11.9643 54.0458 13.025 52.7523 13.025V13.025ZM43.4065 6.21364C41.0441 6.21364 39.1232 7.99593 39.1232 10.455C39.1232 12.8941 41.0441 14.6951 43.4065 14.6951C45.7678 14.6951 47.6899 12.8941 47.6899 10.455C47.6899 7.99593 45.7678 6.21364 43.4065 6.21364ZM43.4065 13.025C42.1118 13.025 40.9951 11.9643 40.9951 10.455C40.9951 8.92571 42.1118 7.88375 43.4065 7.88375C44.7001 7.88375 45.8129 8.92571 45.8129 10.455C45.8129 11.9643 44.7001 13.025 43.4065 13.025ZM32.2855 7.51359V9.31581H36.6177C36.491 10.3229 36.1523 11.0632 35.6328 11.5792C35.0005 12.2024 34.0156 12.8941 32.2855 12.8941C29.6194 12.8941 27.5317 10.7566 27.5317 8.1081C27.5317 5.4596 29.6194 3.3221 32.2855 3.3221C33.7271 3.3221 34.7759 3.88171 35.55 4.60709L36.8285 3.33706C35.7458 2.31006 34.3054 1.52112 32.2855 1.52112C28.6295 1.52112 25.5569 4.47622 25.5569 8.1081C25.5569 11.74 28.6295 14.6951 32.2855 14.6951C34.2615 14.6951 35.7458 14.052 36.9126 12.8455C38.1082 11.6577 38.4809 9.9876 38.4809 8.63904C38.4809 8.22027 38.4457 7.83515 38.383 7.51359H32.2855ZM77.7609 8.91075C77.4084 7.96227 76.3206 6.21364 74.1049 6.21364C71.9093 6.21364 70.0813 7.93236 70.0813 10.455C70.0813 12.8305 71.8905 14.6951 74.3157 14.6951C76.2767 14.6951 77.4084 13.5073 77.8738 12.8156L76.4185 11.8521C75.9329 12.5576 75.2717 13.025 74.3157 13.025C73.3659 13.025 72.6847 12.5925 72.248 11.74L77.9579 9.39309L77.7609 8.91075V8.91075ZM71.9394 10.3229C71.8905 8.68765 73.2179 7.8501 74.1689 7.8501C74.9141 7.8501 75.5465 8.22027 75.7573 8.74997L71.9394 10.3229V10.3229ZM67.2985 14.4371H69.1755V1.97355H67.2985V14.4371ZM64.2247 7.15838H64.1619C63.7404 6.66233 62.9362 6.21364 61.9174 6.21364C59.7795 6.21364 57.8248 8.07819 57.8248 10.4687C57.8248 12.8455 59.7795 14.6951 61.9174 14.6951C62.9362 14.6951 63.7404 14.2426 64.1619 13.7316H64.2247V14.3399C64.2247 15.9614 63.3527 16.8326 61.9463 16.8326C60.7995 16.8326 60.0881 16.01 59.7946 15.3183L58.1623 15.995C58.6328 17.1192 59.8786 18.5027 61.9463 18.5027C64.1469 18.5027 66.0037 17.2164 66.0037 14.0869V6.47163H64.2247V7.15838V7.15838ZM62.078 13.025C60.7845 13.025 59.7017 11.9494 59.7017 10.4687C59.7017 8.97431 60.7845 7.88375 62.078 7.88375C63.3527 7.88375 64.3577 8.97431 64.3577 10.4687C64.3577 11.9494 63.3527 13.025 62.078 13.025V13.025ZM86.5484 1.97355H82.0593V14.4371H83.9312V9.71465H86.5484C88.6273 9.71465 90.6661 8.22027 90.6661 5.84347C90.6661 3.46792 88.6223 1.97355 86.5484 1.97355V1.97355ZM86.5973 7.98097H83.9312V3.70722H86.5973C87.9949 3.70722 88.7929 4.8601 88.7929 5.84347C88.7929 6.80815 87.9949 7.98097 86.5973 7.98097ZM98.1688 6.18996C96.8163 6.18996 95.4098 6.78322 94.8314 8.09813L96.4926 8.78985C96.8502 8.09813 97.5076 7.87378 98.2026 7.87378C99.1737 7.87378 100.159 8.45334 100.174 9.47659V9.60746C99.8349 9.41303 99.1097 9.12512 98.2177 9.12512C96.4286 9.12512 94.6056 10.1035 94.6056 11.9294C94.6056 13.5995 96.071 14.6751 97.7184 14.6751C98.978 14.6751 99.6731 14.1105 100.11 13.4537H100.174V14.4171H101.982V9.63613C101.982 7.42634 100.32 6.18996 98.1688 6.18996ZM97.9429 13.02C97.3307 13.02 96.4775 12.7184 96.4775 11.9643C96.4775 10.9996 97.5415 10.6295 98.4624 10.6295C99.2866 10.6295 99.6731 10.8102 100.174 11.0482C100.027 12.2024 99.0269 13.02 97.9429 13.02V13.02ZM108.568 6.46291L106.417 11.8659H106.353L104.128 6.46291H102.11L105.452 14.0133L103.545 18.2148H105.501L110.651 6.46291H108.568V6.46291ZM91.6949 14.4371H93.5718V1.97355H91.6949V14.4371Z" fill="white"/>
<path d="M12.5651 14.3817L3.99752 19.764L3.9707 19.7786C3.66679 19.9781 3.30925 20.09 2.92937 20.09C1.97742 20.09 1.17742 19.3844 0.945021 18.4306C0.942041 18.4273 0.940552 18.4257 0.940552 18.4257L8.55615 9.6272L12.5651 14.3817Z" fill="#EA4335"/>
<path d="M17.3291 10.0946C17.3291 10.9463 16.8912 11.6908 16.2431 12.0704L12.5649 14.382L8.38171 9.82699L12.5515 5.78784L16.2476 8.12373L16.2565 8.1286C16.8956 8.50818 17.3291 9.24788 17.3291 10.0946Z" fill="#FBBC04"/>
<path d="M8.81539 9.85107L0.940574 18.4257C0.895881 18.2408 0.873535 18.051 0.873535 17.8515V2.30323C0.873535 2.1037 0.895881 1.90905 0.940574 1.72412L8.81539 9.85107Z" fill="#4285F4"/>
<path d="M0.940552 1.72414C1.17742 0.765448 1.97742 0.0598145 2.92937 0.0598145C3.31819 0.0598145 3.6802 0.181476 3.99305 0.381L12.5517 5.78761L8.60978 10.0749L0.940552 1.72414Z" fill="#34A853"/>
</svg>
